# xmcd
#
# Track frame offsets: 
#        150
#        14185
#        35346
#        49681
#        61467
#        79650
#        94886
#        111166
#        124451
#        138690
#        151224
#        165051
#        179386
#        196871
#        210393
#        222473
#        237784
#        252348
#        267133
#        279667
#        296102
#        306567
#        326152
#        343112
#
# Disc length: 4724 seconds
#
# Revision: 0
# Processed by: cddbd v1.5.2PL0 Copyright (c) Steve Scherf et al.
# Submitted via: ExactAudioCopy v1.3
#
DISCID=72127218
DTITLE=Divino e Donizete - Divino e Donizete Os Violeiros do Brasil
DYEAR=2018
DGENRE=Sertanejo
TTITLE0=Mineira de Uberaba
TTITLE1=Sentado a Beira do Caminho
TTITLE2=Velho Amor
TTITLE3=Laço Venenoso
TTITLE4=Faz Mais Uma Vez Comigo
TTITLE5=Poute-Porri de Cateretê
TTITLE6=Boiadeiro Errante
TTITLE7=Poute-Porri de Rasquedo
TTITLE8=Poute-Porri de Pagode
TTITLE9=Fera da Estrada
TTITLE10=Amor Amigo
TTITLE11=Camada a Cobrar
TTITLE12=Nova Flor
TTITLE13=A Moto e o Cavalo
TTITLE14=A Vilola e a Paixão
TTITLE15=Coração Cafajeste
TTITLE16=Medo da Chuva
TTITLE17=Cachaça, Buteco e Viola
TTITLE18=A Garça
TTITLE19=Tributo a Goiás
TTITLE20=O Cervejeiro
TTITLE21=Carro de Boi
TTITLE22=Mineira de Uberlândia
TTITLE23=30 Anos de Viola
EXTD=
EXTT0=
EXTT1=
EXTT2=
EXTT3=
EXTT4=
EXTT5=
EXTT6=
EXTT7=
EXTT8=
EXTT9=
EXTT10=
EXTT11=
EXTT12=
EXTT13=
EXTT14=
EXTT15=
EXTT16=
EXTT17=
EXTT18=
EXTT19=
EXTT20=
EXTT21=
EXTT22=
EXTT23=
PLAYORDER=
